<svg width="943" height="226" viewBox="0 0 943 226" fill="none" xmlns="http://www.w3.org/2000/svg">
<path d="M86.8579 103.017C86.8579 101.641 86.5569 100.437 85.9549 99.4915C85.353 98.5025 84.407 97.7715 83.1601 97.2555C81.1822 104.952 78.0863 110.585 73.8726 114.154C69.6588 117.723 64.1121 119.529 57.3184 119.529C50.1378 119.529 44.2901 117.594 39.8183 113.681C35.3466 109.811 32.0357 103.92 29.9289 96.0945C27.822 88.2686 26.747 78.3788 26.747 66.4679C26.747 54.5571 27.693 45.0112 29.5419 37.3143C31.3908 29.5744 34.4006 23.8125 38.4854 19.9426C42.5702 16.1156 47.8589 14.1806 54.3516 14.1806C58.7804 14.1806 62.3492 15.0406 65.058 16.7606C67.7669 18.4806 69.7448 21.2756 71.0347 25.1025C72.3246 28.9295 72.9696 34.0034 72.9696 40.3243C77.1834 40.3243 80.6662 39.3783 83.2891 37.5293C85.9549 35.6804 87.2878 33.0574 87.2878 29.7034C87.2878 26.5645 86.0839 23.6835 83.719 21.1466C81.3541 18.5666 77.9144 16.5026 73.3996 14.9546C68.8848 13.3637 63.2951 12.5897 56.7164 12.5897C45.666 12.5897 36.5935 14.8686 29.4129 19.4696C22.2322 24.0275 16.8575 30.4344 13.3317 38.6043C9.8059 46.7742 8 56.2341 8 66.9409C8 77.6478 9.76288 87.2367 13.2457 95.3205C16.7285 103.404 22.0173 109.682 29.0259 114.24C36.0775 118.755 44.8061 121.034 55.2545 121.034C60.7582 121.034 65.531 120.475 69.5298 119.357C73.5286 118.239 76.7964 116.734 79.3333 114.928C81.9131 113.122 83.805 111.144 85.009 109.08C86.2559 107.016 86.8579 104.995 86.8579 103.017Z" fill="#1D1D1B"/>
<path d="M133.94 113.939C136.09 111.488 137.724 108.22 138.799 104.178H139.1V119.529H163.91V118.067H163.48C161.33 118.067 159.524 117.766 158.148 117.164C156.772 116.562 155.783 115.573 155.181 114.154C154.579 112.735 154.278 110.8 154.278 108.306V64.1458C154.278 54.901 151.913 48.3651 147.27 44.4951C142.583 40.6682 135.574 38.7332 126.244 38.7332C121.213 38.7332 116.612 39.2062 112.441 40.1952C108.271 41.1842 104.917 42.7751 102.423 44.9251C99.9291 47.0751 98.6391 49.956 98.6391 53.482C98.6391 56.7499 99.8861 59.0719 102.337 60.4909C104.788 61.9099 108.4 62.6409 113.129 62.6409C113.129 54.686 113.903 48.924 115.494 45.4411C117.085 41.9581 120.439 40.1952 125.685 40.1952C129.211 40.1952 131.876 40.9692 133.639 42.4741C135.402 44.0221 136.606 46.3871 137.165 49.655C137.767 52.923 138.068 57.1369 138.068 62.3399V75.4977L125.943 75.9277C114.634 76.3147 106.207 78.3357 100.703 81.9906C95.1993 85.6456 92.4475 91.2355 92.4475 98.8464C92.4475 105.64 94.5973 111.015 98.9401 115.014C103.283 119.013 109.131 120.991 116.526 120.991C120.052 120.991 123.32 120.432 126.287 119.271C129.254 118.153 131.79 116.347 133.983 113.896L133.94 113.939ZM120.783 118.411C118.203 118.411 116.053 117.723 114.29 116.433C112.527 115.1 111.194 113.079 110.378 110.284C109.518 107.532 109.131 104.092 109.131 99.9644C109.131 92.0955 110.593 86.4625 113.473 83.1516C116.354 79.7976 121.686 77.9487 129.34 77.5187L138.068 77.2177V97.2984C138.068 101.039 137.337 104.522 135.918 107.704C134.499 110.886 132.478 113.466 129.856 115.444C127.233 117.422 124.223 118.411 120.783 118.411Z" fill="#1D1D1B"/>
<path d="M293.075 117.078C291.355 116.39 290.109 115.186 289.378 113.466C288.647 111.746 288.26 109.424 288.26 106.457V68.0587C288.26 58.1258 286.196 50.7729 282.068 45.957C277.94 41.184 271.576 38.7761 263.02 38.7761C259.752 38.7761 256.699 39.2491 253.775 40.238C250.852 41.227 248.358 42.99 246.251 45.57C244.144 48.1499 242.553 51.8909 241.435 56.7928H241.134C239.371 50.0849 236.361 45.441 232.191 42.775C228.02 40.109 223.075 38.7761 217.356 38.7761C214.389 38.7761 211.509 39.163 208.628 39.98C205.79 40.754 203.21 42.259 200.931 44.495C198.652 46.7309 196.846 49.9989 195.47 54.2988H195.169V40.41H166.662V41.872H167.393C169.973 41.872 172.08 42.216 173.8 42.904C175.52 43.592 176.809 44.71 177.712 46.301C178.615 47.8919 179.045 49.9989 179.045 52.6649V107.145C179.045 109.897 178.615 112.047 177.712 113.638C176.809 115.229 175.52 116.347 173.8 117.035C172.08 117.723 169.93 118.067 167.393 118.067H166.06V119.529H207.725V118.067H206.994C204.543 118.067 202.393 117.723 200.63 117.035C198.867 116.347 197.534 115.186 196.631 113.509C195.728 111.832 195.298 109.553 195.298 106.715V69.2196C195.298 63.4147 195.9 58.4698 197.061 54.4708C198.265 50.4289 200.071 47.3759 202.522 45.312C204.973 43.248 208.112 42.216 211.982 42.216C216.926 42.216 220.409 44.022 222.559 47.5909C224.709 51.1599 225.741 56.8358 225.741 64.4897V119.572H253.947V118.11H253.517C250.852 118.11 248.659 117.766 246.939 117.078C245.219 116.39 243.972 115.186 243.155 113.466C242.381 111.746 241.994 109.424 241.994 106.457V67.3277C241.994 62.1247 242.596 57.6098 243.757 53.9119C244.961 50.1709 246.767 47.2899 249.304 45.269C251.798 43.248 254.893 42.259 258.548 42.259C263.278 42.259 266.675 44.065 268.825 47.6339C270.932 51.2459 272.007 56.8788 272.007 64.5327V119.615H300.084V118.153H299.654C296.988 118.153 294.795 117.809 293.075 117.121V117.078Z" fill="#1D1D1B"/>
<path d="M363.506 112.563C365.441 110.155 366.387 107.876 366.387 105.683C366.387 104.393 366.086 103.232 365.441 102.2C364.796 101.168 363.807 100.48 362.431 100.222C361.743 104.565 360.41 108.134 358.432 111.015C356.454 113.853 354.046 116.003 351.208 117.422C348.37 118.841 345.103 119.572 341.448 119.572C336.503 119.572 332.547 118.153 329.494 115.358C326.442 112.563 324.249 108.091 322.83 101.899C321.454 95.7504 320.766 87.7095 320.766 77.7337H369.654V74.2077C369.654 62.5119 366.817 53.654 361.141 47.6771C355.465 41.7001 347.725 38.7332 337.879 38.7332C327.173 38.7332 318.831 42.2161 312.94 49.2251C307.05 56.234 304.083 66.6398 304.083 80.5286C304.083 93.3425 307.222 103.275 313.456 110.37C319.691 117.465 328.591 120.991 340.115 120.991C346.006 120.991 350.907 120.174 354.82 118.54C358.69 116.906 361.614 114.885 363.549 112.477V112.563H363.506ZM322.916 55.331C324.077 50.128 325.883 46.3011 328.291 43.8931C330.698 41.4852 333.837 40.2812 337.664 40.2812C341.491 40.2812 344.2 41.4852 346.393 43.8931C348.542 46.3011 350.133 50.128 351.122 55.331C352.111 60.5339 352.584 67.5428 352.584 76.3147H320.68C320.981 67.5428 321.712 60.5769 322.916 55.331Z" fill="#1D1D1B"/>
<path d="M434.796 41.8292C432.13 39.8083 428.261 38.8193 423.144 38.8193C418.715 38.8193 415.103 39.5933 412.351 41.0983C409.6 42.6462 407.45 44.5812 405.945 46.9462C404.397 49.3111 403.279 51.8911 402.462 54.6431H402.161V40.4533H373.954V41.9152H374.384C376.964 41.9152 379.071 42.2592 380.791 42.9472C382.511 43.6352 383.801 44.7532 384.704 46.3442C385.607 47.9352 386.037 50.0421 386.037 52.7081V107.188C386.037 109.94 385.607 112.133 384.704 113.681C383.801 115.272 382.511 116.39 380.791 117.078C379.071 117.766 376.921 118.11 374.384 118.11H372.621V119.572H416.651V118.11H413.985C411.534 118.11 409.428 117.766 407.622 117.078C405.859 116.39 404.526 115.229 403.623 113.509C402.72 111.832 402.29 109.596 402.29 106.715V72.7458C402.29 69.3919 402.419 66.0809 402.72 62.856C403.021 59.588 403.58 56.578 404.44 53.6971C405.257 50.8591 406.461 48.5802 408.052 46.9032C409.643 45.2262 411.663 44.4092 414.114 44.4092C416.565 44.4092 418.93 45.6562 420.822 48.1072C422.757 50.5581 423.703 55.0301 423.703 61.523C428.82 61.523 432.603 60.491 435.054 58.427C437.505 56.363 438.752 53.6541 438.752 50.3001C438.752 46.6452 437.419 43.8072 434.753 41.8292H434.796Z" fill="#1D1D1B"/>
<path d="M675.153 116.992C673.433 116.261 672.143 115.014 671.326 113.208C670.509 111.445 670.079 108.865 670.079 105.511V67.7149C670.079 63.1999 670.595 58.943 671.627 54.944C672.659 50.9451 674.422 47.7201 676.873 45.2692C679.324 42.8182 682.721 41.5712 687.063 41.5712C692.395 41.5712 696.136 43.5062 698.286 47.3331C700.436 51.1601 701.554 56.277 701.554 62.6839V119.529H729.158V118.067H728.556C725.976 118.067 723.912 117.68 722.279 116.949C720.645 116.218 719.484 114.928 718.796 113.122C718.108 111.316 717.764 108.736 717.764 105.382V67.5859C717.764 57.524 715.614 50.2141 711.357 45.6562C707.057 41.0552 700.608 38.7763 691.922 38.7763C689.385 38.7763 686.633 39.1202 683.709 39.8082C680.786 40.4962 678.163 41.9152 675.755 44.1082C673.347 46.2581 671.498 49.6121 670.208 54.17H669.907C669.993 52.1921 670.036 50.3001 670.036 48.4081V7.34368H641.228V8.80565H642.26C644.926 8.80565 647.075 9.19265 648.666 9.92364C650.3 10.6546 651.547 11.9016 652.45 13.6216C653.353 15.3416 653.783 17.7925 653.783 20.9315V105.554C653.783 108.908 653.353 111.445 652.536 113.251C651.719 115.014 650.386 116.261 648.623 117.035C646.86 117.766 644.668 118.153 642.131 118.153H640.798V119.615H682.463V118.153H681.431C678.98 118.153 676.873 117.766 675.153 117.035V116.992Z" fill="#1D1D1B"/>
<path d="M804.577 119.572V118.11H804.147C801.997 118.11 800.191 117.809 798.815 117.207C797.439 116.605 796.45 115.616 795.848 114.197C795.246 112.778 794.945 110.843 794.945 108.349V64.1887C794.945 54.9438 792.623 48.4079 787.936 44.538C783.25 40.711 776.241 38.7761 766.868 38.7761C761.837 38.7761 757.236 39.2491 753.065 40.238C748.895 41.227 745.541 42.818 743.004 44.968C740.51 47.118 739.22 49.9989 739.22 53.5249C739.22 56.7928 740.467 59.1148 742.918 60.5338C745.369 61.9527 748.98 62.6837 753.71 62.6837C753.71 54.7288 754.484 48.9669 756.075 45.484C757.666 42.001 761.063 40.238 766.266 40.238C769.791 40.238 772.457 41.012 774.263 42.517C776.026 44.065 777.23 46.43 777.789 49.6979C778.391 52.9659 778.692 57.1798 778.692 62.3827V75.5406L766.567 75.9706C755.258 76.3575 746.831 78.3785 741.327 82.0335C735.823 85.6884 733.071 91.2784 733.071 98.8893C733.071 105.683 735.221 111.058 739.564 115.057C743.907 119.056 749.754 121.034 757.15 121.034C760.676 121.034 763.944 120.475 766.911 119.314C769.877 118.153 772.414 116.39 774.607 113.939C776.757 111.488 778.391 108.22 779.466 104.178H779.767V119.529H804.577V119.572ZM778.735 97.2983C778.735 101.039 778.004 104.522 776.585 107.704C775.166 110.886 773.145 113.466 770.522 115.444C767.899 117.422 764.89 118.411 761.45 118.411C758.87 118.411 756.72 117.723 754.957 116.433C753.194 115.1 751.861 113.079 751.044 110.284C750.227 107.532 749.797 104.092 749.797 99.9642C749.797 92.0953 751.259 86.4624 754.14 83.1514C757.021 79.7975 762.353 77.9485 770.006 77.5185L778.735 77.2175V97.2983Z" fill="#1D1D1B"/>
<path d="M827.149 27.2097C829.471 27.2097 831.492 26.4357 833.169 24.8878C834.846 23.3398 835.663 20.7168 835.663 17.0189C835.663 13.3209 834.846 10.741 833.169 9.23597C831.492 7.73099 829.471 7 827.149 7C824.698 7 822.677 7.73099 821.043 9.23597C819.409 10.741 818.636 13.3209 818.636 17.0189C818.636 20.7168 819.452 23.2968 821.043 24.8878C822.677 26.4357 824.698 27.2097 827.149 27.2097Z" fill="#1D1D1B"/>
<path d="M909.75 41.8292C907.084 39.8083 903.214 38.8193 898.097 38.8193C893.668 38.8193 890.057 39.5933 887.305 41.0983C884.553 42.6462 882.403 44.5812 880.898 46.9462C879.35 49.3111 878.232 51.8911 877.415 54.6431H877.114V40.4533H848.908V41.9152H849.338C851.918 41.9152 854.025 42.2592 855.744 42.9472C857.464 43.6352 858.754 44.7532 859.657 46.3442C860.56 47.9352 860.99 50.0421 860.99 52.7081V107.188C860.99 109.94 860.56 112.133 859.657 113.681C858.754 115.272 857.464 116.39 855.744 117.078C854.025 117.766 851.875 118.11 849.338 118.11H847.704C845.253 118.11 843.103 117.766 841.34 117.078C839.577 116.39 838.244 115.229 837.341 113.509C836.438 111.832 836.008 109.596 836.008 106.715V40.4103H807.372V41.8722H808.103C810.683 41.8722 812.79 42.2162 814.509 42.9042C816.229 43.5922 817.562 44.7102 818.422 46.3012C819.282 47.8922 819.755 49.9991 819.755 52.6651V107.145C819.755 109.897 819.325 112.09 818.422 113.638C817.519 115.229 816.229 116.347 814.509 117.035C812.79 117.723 810.64 118.067 808.103 118.067H806.168V119.529H891.518V118.067H888.853C886.402 118.067 884.252 117.723 882.489 117.035C880.726 116.347 879.393 115.186 878.49 113.466C877.587 111.789 877.157 109.553 877.157 106.672V72.7028C877.157 69.3489 877.286 66.0379 877.587 62.813C877.888 59.545 878.447 56.535 879.307 53.6541C880.124 50.8161 881.371 48.5372 882.919 46.8602C884.51 45.1832 886.531 44.3662 888.982 44.3662C891.433 44.3662 893.797 45.6132 895.689 48.0642C897.624 50.5151 898.57 54.9871 898.57 61.48C903.687 61.48 907.471 60.448 909.922 58.384C912.372 56.32 913.619 53.6111 913.619 50.2571C913.619 46.6022 912.286 43.7642 909.621 41.7862H909.75V41.8292Z" fill="#1D1D1B"/>
<path d="M479.298 38.7332C467 38.7332 457.713 42.1301 451.392 48.924C445.072 55.718 441.933 66.0378 441.933 79.8836C441.933 93.7294 445.2 104.221 451.779 111.058C458.358 117.895 467.344 121.292 478.782 121.292C491.079 121.292 500.367 117.895 506.687 111.058C513.008 104.221 516.147 93.8154 516.147 79.8836C516.147 65.9518 512.879 55.718 506.3 48.924C499.722 42.1301 490.735 38.7332 479.298 38.7332ZM497.314 103.06C495.981 108.908 493.831 113.165 490.864 115.831C487.897 118.497 483.984 119.83 479.126 119.83C474.267 119.83 470.354 118.497 467.301 115.831C464.291 113.165 462.099 108.908 460.766 103.06C459.433 97.2124 458.745 89.5155 458.745 79.8836C458.745 70.2518 459.433 62.7269 460.766 56.8789C462.099 51.031 464.248 46.8171 467.215 44.1941C470.182 41.5712 474.095 40.2382 478.954 40.2382C483.812 40.2382 487.854 41.5282 490.821 44.1941C493.788 46.8171 495.938 51.031 497.271 56.8789C498.604 62.7269 499.292 70.3808 499.292 79.8836C499.292 89.3865 498.604 97.2124 497.271 103.06H497.314Z" fill="#1D1D1B"/>
<path d="M601.843 116.863C600.252 116.132 599.091 114.842 598.36 113.036C597.629 111.23 597.242 108.65 597.242 105.296V67.4999C597.242 57.4381 595.135 50.1282 590.878 45.5702C586.665 40.9693 580.129 38.6903 571.4 38.6903C568.82 38.6903 566.112 39.0343 563.188 39.7223C560.264 40.4103 557.641 41.8293 555.276 44.0222C552.911 46.1722 551.062 49.5262 549.687 54.0841H549.385V40.3673H546.376V40.2813H521.91V41.7433H522.598C525.436 41.7433 527.629 42.1733 529.177 42.9903C530.724 43.8502 531.842 45.2262 532.53 47.1612C533.132 48.7952 533.433 50.9882 533.519 53.6971L533.261 105.468C533.261 108.822 532.831 111.359 532.014 113.165C531.198 114.928 529.908 116.175 528.188 116.949C526.468 117.68 524.275 118.067 521.609 118.067H520.276V119.529H561.898V118.067H560.995C558.458 118.067 556.308 117.68 554.588 116.949C552.868 116.218 551.578 114.971 550.761 113.165C549.902 111.402 549.514 108.822 549.514 105.468V67.6719C549.514 63.157 550.03 58.9 551.062 54.9011C552.094 50.9022 553.857 47.6772 556.394 45.2262C558.888 42.7753 562.285 41.5283 566.499 41.5283C571.83 41.5283 575.571 43.4633 577.721 47.2902C579.871 51.1171 580.989 56.2341 580.989 62.641V119.486H608.765V118.024H608.034C605.455 118.024 603.391 117.637 601.843 116.906V116.863Z" fill="#1D1D1B"/>
<path d="M26.23 173.192H17.2005V209.355H20.1673V193.918H26.402C34.7436 193.918 39.3443 190.177 39.3443 183.34C39.3443 176.503 35.0446 173.192 26.187 173.192H26.23ZM20.2104 175.944H25.5851C33.3677 175.944 36.2485 177.965 36.2485 183.34C36.2485 188.715 33.1957 191.08 26.316 191.166H20.1673V175.901L20.2104 175.944Z" fill="black"/>
<path d="M73.8712 182.824C73.8712 178.395 71.8073 173.15 62.0038 173.15H51.7703V209.355H54.7372V192.843H61.5308L71.1623 209.054L71.3343 209.312H74.8601L64.8846 192.628C70.6033 191.768 73.8712 188.199 73.8712 182.781V182.824ZM70.8183 182.738C70.8183 187.554 67.6365 190.048 61.3588 190.048H54.7372V175.902H61.3588C67.9805 175.902 70.8183 177.965 70.8183 182.738Z" fill="black"/>
<path d="M98.294 172.548C89.4365 172.548 83.5028 180.029 83.5028 191.166C83.5028 196.67 84.9217 201.4 87.6306 204.797C90.2534 208.151 94.0802 210 98.337 210C102.594 210 106.335 208.151 109.043 204.797C111.752 201.4 113.171 196.713 113.171 191.166C113.171 180.029 107.238 172.548 98.337 172.548H98.294ZM98.294 175.429C105.432 175.429 110.075 181.62 110.075 191.209C110.075 196.025 108.957 200.067 106.808 202.862C104.701 205.7 101.777 207.162 98.337 207.162C94.8972 207.162 91.9733 205.657 89.8665 202.862C87.7166 200.024 86.5986 195.982 86.5986 191.209C86.5986 181.62 91.1994 175.429 98.337 175.429H98.294Z" fill="black"/>
<path d="M125.942 209.355H128.909V192.112H143.141V189.36H128.909V175.944H145.807V173.192H125.942V209.355Z" fill="black"/>
<path d="M159.094 191.467H173.412V188.715H159.094V175.901H176.164V173.192H156.127V209.355H176.723V206.603H159.094V191.467Z" fill="black"/>
<path d="M233.393 190.349L227.932 187.898C225.524 186.823 222.17 185.318 222.17 181.362C222.17 177.75 225.18 175.343 229.652 175.343C232.834 175.343 235.586 176.547 237.65 178.825L238.165 179.341L239.67 177.665L239.799 177.407V176.977L239.67 176.805C237.134 174.01 233.522 172.419 229.695 172.419C223.632 172.419 219.204 176.203 219.204 181.405C219.204 187.339 224.449 189.575 226.642 190.521L232.06 192.972C235.328 194.434 238.165 195.724 238.165 200.153C238.165 204.238 234.726 206.99 229.566 206.99C225.696 206.99 222.127 205.356 219.547 202.346L219.075 201.83L217.398 203.507L217.226 203.765V204.195L217.355 204.367C220.536 207.979 224.75 209.871 229.523 209.871C236.317 209.871 241.089 205.829 241.089 200.024C241.089 194.219 237.263 192.026 233.35 190.263L233.393 190.349Z" fill="black"/>
<path d="M256.182 173.192H253.215V209.355H256.182V173.192Z" fill="black"/>
<path d="M283.786 172.548C274.929 172.548 268.952 180.029 268.952 191.166C268.952 196.67 270.371 201.4 273.08 204.797C275.746 208.151 279.573 210 283.786 210C288 210 291.827 208.151 294.493 204.797C297.202 201.4 298.621 196.713 298.621 191.166C298.621 180.029 292.687 172.548 283.829 172.548H283.786ZM283.786 175.429C290.924 175.429 295.525 181.62 295.525 191.209C295.525 196.025 294.407 200.067 292.257 202.862C290.15 205.7 287.226 207.162 283.786 207.162C280.346 207.162 277.423 205.657 275.316 202.862C273.166 200.024 272.048 195.982 272.048 191.209C272.048 181.62 276.649 175.429 283.829 175.429H283.786Z" fill="black"/>
<path d="M332.632 196.455C332.632 199.035 332.675 201.486 332.761 204.066L329.794 198.992L314.358 173.408L314.186 173.15H311.348V209.269H314.186V185.705C314.186 183.168 314.143 180.803 314.057 178.352L317.024 183.426L332.46 209.054L332.632 209.312H335.47V173.193H332.632V196.498V196.455Z" fill="black"/>
<path d="M361.096 173.536L360.752 173.192H358.516L345.875 208.538V209.398H348.626L353.055 196.928H366.342L370.684 209.355H373.866L361.139 173.751V173.536H361.096ZM354.001 194.133L356.452 187.296C357.656 183.899 358.688 180.889 359.72 177.492C360.752 180.803 361.741 183.77 362.902 187.081L365.353 194.133H354.001Z" fill="black"/>
<path d="M386.896 173.192H383.972V209.355H403.364V206.603H386.896V173.192Z" fill="black"/>
<path d="M457.583 188.715H439.223V173.192H436.299V209.355H439.223V191.467H457.583V209.355H460.507V173.192H457.583V188.715Z" fill="black"/>
<path d="M486.134 173.536L485.79 173.192H483.554L470.912 208.538V209.398H473.664L478.093 196.928H491.379L495.722 209.355H498.904L486.177 173.751V173.536H486.134ZM490.347 194.133H479.039L481.576 186.909C482.694 183.641 483.726 180.76 484.715 177.492C485.704 180.76 486.693 183.641 487.854 186.909L490.347 194.133Z" fill="black"/>
<path d="M511.89 173.192H508.923V209.355H511.89V173.192Z" fill="black"/>
<path d="M549.169 182.824C549.169 178.395 547.106 173.15 537.345 173.15H527.069V209.355H530.035V192.843H536.829L546.461 209.054L546.633 209.312H550.158L540.183 192.628C545.902 191.768 549.169 188.199 549.169 182.781V182.824ZM546.117 182.738C546.117 187.554 542.935 190.048 536.657 190.048H530.035V175.902H536.657C543.279 175.902 546.117 177.965 546.117 182.738Z" fill="black"/>
<path d="M590.059 191.467H604.378V188.715H590.059V175.901H607.087V173.192H587.136V209.355H607.602V206.603H590.059V191.467Z" fill="black"/>
<path d="M639.034 174.138L639.593 173.192H636.325L630.048 184.286C629.446 185.318 628.973 186.178 628.414 187.167L627.855 188.199C627.597 187.769 627.339 187.339 627.081 186.952C626.522 186.049 626.049 185.275 625.49 184.329L619.169 173.278H615.858L626.092 190.65L615.17 209.398H618.352L625.017 197.874L625.619 196.799C626.221 195.681 626.909 194.52 627.64 193.187C627.855 193.531 628.027 193.875 628.242 194.176L628.887 195.294C629.446 196.197 629.962 197.057 630.392 197.917L637.013 209.398H640.324L629.403 190.822L639.034 174.181V174.138Z" fill="black"/>
<path d="M645.871 175.901H657.18V209.355H660.103V175.901H671.412V173.192H645.871V175.901Z" fill="black"/>
<path d="M685.859 191.467H700.091V188.715H685.859V175.901H702.886V173.192H682.849V209.355H703.402V206.603H685.859V191.467Z" fill="black"/>
<path d="M736.939 196.454C736.939 199.034 736.982 201.528 737.068 204.065L734.101 198.991L718.665 173.407L718.493 173.149H715.655V209.268H718.493V185.705C718.493 183.168 718.45 180.76 718.364 178.352L721.331 183.426L736.767 209.053L736.939 209.311H739.777V173.192H736.939V196.497V196.454Z" fill="black"/>
<path d="M768.199 190.349L762.738 187.898C760.331 186.823 756.977 185.318 756.977 181.362C756.977 177.75 759.987 175.343 764.501 175.343C767.683 175.343 770.435 176.547 772.499 178.825L773.015 179.341L774.52 177.665L774.649 177.407V176.977L774.52 176.805C771.983 174.01 768.371 172.419 764.544 172.419C758.482 172.419 754.053 176.203 754.053 181.405C754.053 187.339 759.299 189.575 761.492 190.521L766.909 192.972C770.177 194.434 773.015 195.724 773.015 200.153C773.015 204.238 769.575 206.99 764.415 206.99C760.545 206.99 756.977 205.356 754.397 202.346L753.924 201.83L752.247 203.507L752.075 203.765V204.195L752.204 204.367C755.343 207.979 759.557 209.871 764.372 209.871C771.166 209.871 775.939 205.829 775.939 200.024C775.939 194.219 772.112 192.026 768.199 190.263V190.349Z" fill="black"/>
<path d="M790.988 173.192H788.021V209.355H790.988V173.192Z" fill="black"/>
<path d="M818.594 172.547C809.736 172.547 803.76 180.029 803.76 191.166C803.76 196.67 805.179 201.4 807.888 204.797C810.51 208.151 814.337 210 818.594 210C822.851 210 826.634 208.151 829.3 204.797C832.009 201.4 833.428 196.713 833.428 191.166C833.428 180.029 827.495 172.547 818.637 172.547H818.594ZM830.332 191.166C830.332 195.982 829.214 200.024 827.065 202.819C824.958 205.657 822.034 207.119 818.594 207.119C815.154 207.119 812.23 205.614 810.123 202.819C807.973 199.981 806.856 195.939 806.856 191.166C806.856 181.577 811.456 175.385 818.637 175.385C825.818 175.385 830.375 181.577 830.375 191.166H830.332Z" fill="black"/>
<path d="M867.525 196.455C867.525 199.035 867.568 201.529 867.654 204.066L864.687 198.992L849.25 173.408L849.078 173.15H846.241V209.269H849.078V185.705C849.078 183.168 849.036 180.76 848.95 178.352L851.916 183.426L867.353 209.054L867.525 209.312H870.362V173.193H867.525V196.498V196.455Z" fill="black"/>
<path d="M898.783 190.349L893.323 187.898C890.915 186.823 887.561 185.318 887.561 181.362C887.561 177.75 890.571 175.343 895.086 175.343C898.268 175.343 901.019 176.547 903.083 178.825L903.599 179.341L905.104 177.665L905.233 177.407V176.977L905.104 176.805C902.567 174.01 898.955 172.419 895.129 172.419C889.066 172.419 884.637 176.203 884.637 181.405C884.637 187.339 889.883 189.575 892.076 190.521L897.494 192.972C900.761 194.434 903.599 195.724 903.599 200.153C903.599 204.238 900.159 206.99 895 206.99C891.13 206.99 887.561 205.356 884.981 202.346L884.508 201.83L882.831 203.507L882.659 203.765V204.195L882.788 204.367C885.927 207.979 890.141 209.871 894.957 209.871C901.75 209.871 906.523 205.829 906.523 200.024C906.523 194.219 902.696 192.026 898.783 190.263V190.349Z" fill="black"/>
<path d="M199.855 190.349L194.394 187.898C191.986 186.823 188.633 185.318 188.633 181.362C188.633 177.75 191.642 175.343 196.157 175.343C199.339 175.343 202.091 176.547 204.155 178.825L204.671 179.341L206.176 177.665L206.305 177.407V176.977L206.176 176.805C203.639 174.01 200.027 172.419 196.2 172.419C190.137 172.419 185.709 176.203 185.709 181.405C185.709 187.339 190.954 189.575 193.147 190.521L198.565 192.972C201.833 194.434 204.671 195.724 204.671 200.153C204.671 204.238 201.231 206.99 196.071 206.99C192.201 206.99 188.633 205.356 186.053 202.346L185.58 201.83L183.903 203.507L183.731 203.765V204.195L183.86 204.367C187.042 207.979 191.255 209.871 196.028 209.871C202.822 209.871 207.595 205.829 207.595 200.024C207.595 194.219 203.768 192.026 199.855 190.263V190.349Z" fill="black"/>
</svg>
