<?xml version="1.0" encoding="UTF-8"?>
<svg id="Warstwa_1" xmlns="http://www.w3.org/2000/svg" version="1.1" viewBox="0 0 218.1 35.1">
  <!-- Generator: Adobe Illustrator 29.5.1, SVG Export Plug-In . SVG Version: 2.1.0 Build 141)  -->
  <polygon points="5.9 1.8 10.3 1.8 18.7 21.9 27.5 1.8 31.9 1.8 37.2 33.4 31 33.4 28.1 13.9 19.7 33.4 17.6 33.4 9.5 13.9 6.3 33.4 0 33.4 5.9 1.8"/>
  <path d="M68.7,17.6c0-6.4-4.4-10.9-10.5-10.9s-10.5,4.5-10.5,10.9,4.4,10.9,10.5,10.9,10.5-4.5,10.5-10.9M75,17.6c0,9.6-6.9,16.5-16.9,16.5s-16.9-6.9-16.9-16.5S48.2,1.1,58.2,1.1s16.9,6.9,16.9,16.5"/>
  <path d="M118.5,1v20.7c0,2.4.8,3.9,1.5,4.7.9,1.1,2.6,2.2,5,2.2s4.1-1.1,5-2.2c.7-.8,1.5-2.3,1.5-4.7V1h6.2v20.1c0,3-.5,6-2.4,8.4-2.3,3-6.2,4.6-10.3,4.6s-8.1-1.6-10.3-4.5c-1.9-2.4-2.4-5.5-2.4-8.4V1h6.2,0Z"/>
  <polygon points="147.7 1.8 152.2 1.8 160.6 21.9 169.3 1.8 173.8 1.8 179.1 33.4 172.8 33.4 170 13.9 161.5 33.4 159.4 33.4 151.3 13.9 148.1 33.4 141.9 33.4 147.7 1.8"/>
  <path d="M210.6,17.6c0-6.4-4.4-10.9-10.5-10.9s-10.5,4.5-10.5,10.9,4.4,10.9,10.5,10.9,10.5-4.5,10.5-10.9M216.9,17.6c0,9.6-6.9,16.5-16.9,16.5s-16.9-6.9-16.9-16.5,6.9-16.5,16.9-16.5,16.9,6.9,16.9,16.5"/>
  <path d="M100.3,33.9V13.5c0-2.4-.8-3.9-1.5-4.7-.9-1.1-2.6-2.2-5-2.2s-4.1,1.1-5,2.2c-.7.8-1.5,2.3-1.5,4.7v20.5h-6.2V14c0-3,.5-6,2.4-8.4,2.3-3,6.2-4.5,10.3-4.5s8.1,1.6,10.3,4.5c1.9,2.4,2.4,5.5,2.4,8.4v19.9h-6.2Z"/>
</svg>